<svg width="200" height="60" viewBox="0 0 200 60" fill="none" xmlns="http://www.w3.org/2000/svg">
<path d="M30 40C35.5228 40 40 35.5228 40 30C40 24.4772 35.5228 20 30 20C24.4772 20 20 24.4772 20 30C20 35.5228 24.4772 40 30 40Z" fill="#B8E1FF"/>
<path d="M40 15H35V40H40V15Z" fill="#B8E1FF"/>
<path d="M40 26C43.3137 26 46 23.3137 46 20C46 16.6863 43.3137 14 40 14C36.6863 14 34 16.6863 34 20C34 23.3137 36.6863 26 40 26Z" fill="#B8E1FF"/>
<path d="M62.1136 16.5455H64.6364L70.5682 31.0341H70.7727L76.7045 16.5455H79.2273V34H77.25V20.7386H77.0795L71.625 34H69.7159L64.2614 20.7386H64.0909V34H62.1136V16.5455ZM91.4425 28.6477V20.9091H93.4538V34H91.4425V31.7841H91.3061C90.9993 32.4489 90.522 33.0142 89.8743 33.4801C89.2266 33.9403 88.4084 34.1705 87.4197 34.1705C86.6016 34.1705 85.8743 33.9915 85.2379 33.6335C84.6016 33.2699 84.1016 32.7244 83.7379 31.9972C83.3743 31.2642 83.1925 30.3409 83.1925 29.2273V20.9091H85.2038V29.0909C85.2038 30.0455 85.4709 30.8068 86.005 31.375C86.5447 31.9432 87.2322 32.2273 88.0675 32.2273C88.5675 32.2273 89.076 32.0994 89.593 31.8438C90.1158 31.5881 90.5533 31.196 90.9055 30.6676C91.2635 30.1392 91.4425 29.4659 91.4425 28.6477ZM106.411 23.8409L104.604 24.3523C104.49 24.0511 104.322 23.7585 104.101 23.4744C103.885 23.1847 103.589 22.946 103.214 22.7585C102.839 22.571 102.359 22.4773 101.774 22.4773C100.973 22.4773 100.305 22.6619 99.7713 23.0312C99.2429 23.3949 98.9787 23.858 98.9787 24.4205C98.9787 24.9205 99.1605 25.3153 99.5241 25.6051C99.8878 25.8949 100.456 26.1364 101.229 26.3295L103.172 26.8068C104.342 27.0909 105.214 27.5256 105.788 28.1108C106.362 28.6903 106.649 29.4375 106.649 30.3523C106.649 31.1023 106.433 31.7727 106.001 32.3636C105.575 32.9545 104.979 33.4205 104.212 33.7614C103.445 34.1023 102.553 34.2727 101.536 34.2727C100.2 34.2727 99.0952 33.983 98.2202 33.4034C97.3452 32.8239 96.7912 31.9773 96.5582 30.8636L98.4673 30.3864C98.6491 31.0909 98.9929 31.6193 99.4986 31.9716C100.01 32.3239 100.678 32.5 101.501 32.5C102.439 32.5 103.183 32.3011 103.734 31.9034C104.291 31.5 104.57 31.017 104.57 30.4545C104.57 30 104.411 29.6193 104.092 29.3125C103.774 29 103.286 28.767 102.626 28.6136L100.445 28.1023C99.2457 27.8182 98.3651 27.3778 97.8026 26.7812C97.2457 26.179 96.9673 25.4261 96.9673 24.5227C96.9673 23.7841 97.1747 23.1307 97.5895 22.5625C98.0099 21.9943 98.581 21.5483 99.3026 21.2244C100.03 20.9006 100.854 20.7386 101.774 20.7386C103.07 20.7386 104.087 21.0227 104.825 21.5909C105.57 22.1591 106.098 22.9091 106.411 23.8409ZM109.677 34V20.9091H111.688V34H109.677ZM110.7 18.7273C110.308 18.7273 109.969 18.5938 109.685 18.3267C109.407 18.0597 109.268 17.7386 109.268 17.3636C109.268 16.9886 109.407 16.6676 109.685 16.4006C109.969 16.1335 110.308 16 110.7 16C111.092 16 111.427 16.1335 111.705 16.4006C111.989 16.6676 112.131 16.9886 112.131 17.3636C112.131 17.7386 111.989 18.0597 111.705 18.3267C111.427 18.5938 111.092 18.7273 110.7 18.7273ZM120.69 34.2727C119.463 34.2727 118.406 33.983 117.52 33.4034C116.634 32.8239 115.952 32.0256 115.474 31.0085C114.997 29.9915 114.759 28.8295 114.759 27.5227C114.759 26.1932 115.003 25.0199 115.491 24.0028C115.986 22.9801 116.673 22.1818 117.554 21.608C118.44 21.0284 119.474 20.7386 120.656 20.7386C121.577 20.7386 122.406 20.9091 123.145 21.25C123.884 21.5909 124.489 22.0682 124.96 22.6818C125.432 23.2955 125.724 24.0114 125.838 24.8295H123.827C123.673 24.233 123.332 23.7045 122.804 23.2443C122.281 22.7784 121.577 22.5455 120.69 22.5455C119.906 22.5455 119.219 22.75 118.628 23.1591C118.043 23.5625 117.585 24.1335 117.256 24.8722C116.932 25.6051 116.77 26.4659 116.77 27.4545C116.77 28.4659 116.929 29.3466 117.247 30.0966C117.571 30.8466 118.026 31.429 118.611 31.8438C119.202 32.2585 119.895 32.4659 120.69 32.4659C121.213 32.4659 121.688 32.375 122.114 32.1932C122.54 32.0114 122.901 31.75 123.196 31.4091C123.491 31.0682 123.702 30.6591 123.827 30.1818H125.838C125.724 30.9545 125.443 31.6506 124.994 32.2699C124.551 32.8835 123.963 33.3722 123.23 33.7358C122.503 34.0938 121.656 34.2727 120.69 34.2727ZM129.767 16.5455L134.949 31.2386H135.153L140.335 16.5455H142.551L136.142 34H133.96L127.551 16.5455H129.767ZM144.997 34V20.9091H147.009V34H144.997ZM146.02 18.7273C145.628 18.7273 145.29 18.5938 145.006 18.3267C144.727 18.0597 144.588 17.7386 144.588 17.3636C144.588 16.9886 144.727 16.6676 145.006 16.4006C145.29 16.1335 145.628 16 146.02 16C146.412 16 146.747 16.1335 147.026 16.4006C147.31 16.6676 147.452 16.9886 147.452 17.3636C147.452 17.7386 147.31 18.0597 147.026 18.3267C146.747 18.5938 146.412 18.7273 146.02 18.7273ZM150.965 34V16.5455H152.977V22.9886H153.147C153.295 22.7614 153.499 22.4716 153.761 22.1193C154.028 21.7614 154.408 21.4432 154.903 21.1648C155.403 20.8807 156.079 20.7386 156.931 20.7386C158.033 20.7386 159.005 21.0142 159.846 21.5653C160.687 22.1165 161.343 22.8977 161.815 23.9091C162.286 24.9205 162.522 26.1136 162.522 27.4886C162.522 28.875 162.286 30.0767 161.815 31.0938C161.343 32.1051 160.69 32.8892 159.854 33.446C159.019 33.9972 158.056 34.2727 156.965 34.2727C156.124 34.2727 155.451 34.1335 154.945 33.8551C154.44 33.571 154.05 33.25 153.778 32.892C153.505 32.5284 153.295 32.2273 153.147 31.9886H152.908V34H150.965ZM152.942 27.4545C152.942 28.4432 153.087 29.3153 153.377 30.071C153.667 30.821 154.09 31.4091 154.647 31.8352C155.204 32.2557 155.886 32.4659 156.692 32.4659C157.533 32.4659 158.235 32.2443 158.798 31.8011C159.366 31.3523 159.792 30.75 160.076 29.9943C160.366 29.233 160.511 28.3864 160.511 27.4545C160.511 26.5341 160.369 25.7045 160.085 24.9659C159.806 24.2216 159.383 23.6335 158.815 23.2017C158.252 22.7642 157.545 22.5455 156.692 22.5455C155.874 22.5455 155.187 22.7528 154.63 23.1676C154.073 23.5767 153.653 24.1506 153.369 24.8892C153.085 25.6222 152.942 26.4773 152.942 27.4545ZM171.087 34.2727C169.826 34.2727 168.738 33.9943 167.823 33.4375C166.914 32.875 166.212 32.0909 165.718 31.0852C165.229 30.0739 164.985 28.8977 164.985 27.5568C164.985 26.2159 165.229 25.0341 165.718 24.0114C166.212 22.983 166.9 22.1818 167.781 21.608C168.667 21.0284 169.701 20.7386 170.883 20.7386C171.565 20.7386 172.238 20.8523 172.903 21.0795C173.567 21.3068 174.173 21.6761 174.718 22.1875C175.263 22.6932 175.698 23.3636 176.022 24.1989C176.346 25.0341 176.508 26.0625 176.508 27.2841V28.1364H166.417V26.3977H174.462C174.462 25.6591 174.315 25 174.019 24.4205C173.729 23.8409 173.315 23.3835 172.775 23.0483C172.241 22.7131 171.61 22.5455 170.883 22.5455C170.082 22.5455 169.388 22.7443 168.803 23.142C168.224 23.5341 167.778 24.0455 167.465 24.6761C167.153 25.3068 166.996 25.983 166.996 26.7045V27.8636C166.996 28.8523 167.167 29.6903 167.508 30.3778C167.854 31.0597 168.335 31.5795 168.948 31.9375C169.562 32.2898 170.275 32.4659 171.087 32.4659C171.616 32.4659 172.093 32.392 172.519 32.2443C172.951 32.0909 173.323 31.8636 173.636 31.5625C173.948 31.2557 174.19 30.875 174.36 30.4205L176.303 30.9659C176.099 31.625 175.755 32.2045 175.272 32.7045C174.789 33.1989 174.192 33.5852 173.482 33.8636C172.772 34.1364 171.974 34.2727 171.087 34.2727Z" fill="white"/>
</svg>
