<svg width="35" height="32" viewBox="0 0 35 32" fill="none" xmlns="http://www.w3.org/2000/svg">
<path d="M13.0623 26.0793C12.6413 26.0793 12.2993 26.4322 12.2993 26.8682C12.2993 27.3042 12.6414 27.6575 13.0623 27.6575C13.4839 27.6575 13.8254 27.3042 13.8254 26.8682C13.8254 26.4322 13.4839 26.0793 13.0623 26.0793Z" fill="black"/>
<path d="M13.0623 23.1309C12.6413 23.1309 12.2993 23.4842 12.2993 23.9202C12.2993 24.3557 12.6414 24.709 13.0623 24.709C13.4839 24.709 13.8254 24.3557 13.8254 23.9202C13.8254 23.4841 13.4839 23.1309 13.0623 23.1309Z" fill="black"/>
<path d="M33.1127 13.6409H13.8246H13.6848H12.2984H6.92773H5.5415V15.0744V29.8182V31.2522H6.9278H12.2985H13.6848H13.8246H33.1127H34.4991V29.8182V15.0744V13.6409H33.1127ZM33.1127 29.8182H13.8246C13.8246 29.3822 13.483 29.0293 13.0615 29.0293C12.6405 29.0293 12.2985 29.3821 12.2985 29.8182H6.9278V15.0744H12.2985C12.2985 15.5103 12.6406 15.8632 13.0615 15.8632C13.483 15.8632 13.8246 15.5104 13.8246 15.0744H33.1127L33.1127 29.8182Z" fill="black"/>
<path d="M13.0623 20.1836C12.6413 20.1836 12.2993 20.5369 12.2993 20.9729C12.2993 21.4083 12.6414 21.7617 13.0623 21.7617C13.4839 21.7617 13.8254 21.4083 13.8254 20.9729C13.8254 20.5369 13.4839 20.1836 13.0623 20.1836Z" fill="black"/>
<path d="M13.0623 17.2324C12.6413 17.2324 12.2993 17.5852 12.2993 18.0213C12.2993 18.4573 12.6414 18.8106 13.0623 18.8106C13.4839 18.8106 13.8254 18.4573 13.8254 18.0213C13.8254 17.5852 13.4839 17.2324 13.0623 17.2324Z" fill="black"/>
<path d="M7.94058 11.4594L24.8944 1.94396L30.2781 12.2058H31.8547L26.1125 1.25945L25.4518 0L24.2328 0.682975L7.28038 10.1995L7.15748 10.2681L5.93896 10.9516L1.21852 13.6016L0 14.2856L0.66121 15.5461L4.15559 22.2069V19.2004L1.87979 14.8621L4.15559 13.5841L7.94058 11.4594Z" fill="black"/>
</svg>
